<?xml version="1.0" encoding="UTF-8" standalone="no"?>
<!DOCTYPE svg PUBLIC "-//W3C//DTD SVG 1.1//EN" "http://www.w3.org/Graphics/SVG/1.1/DTD/svg11.dtd">
<svg width="100%" height="100%" viewBox="0 0 380 235" version="1.1" xmlns="http://www.w3.org/2000/svg" xmlns:xlink="http://www.w3.org/1999/xlink" xml:space="preserve" xmlns:serif="http://www.serif.com/" style="fill-rule:evenodd;clip-rule:evenodd;stroke-linecap:round;stroke-linejoin:round;stroke-miterlimit:1.5;">
    <rect id="small" x="-0" y="0" width="380" height="235" style="fill:none;"/>
    <path d="M12.766,4C7.925,4 4,7.925 4,12.766L4,221.234C4,226.075 7.925,230 12.766,230L367.234,230C372.075,230 376,226.075 376,221.234L376,12.766C376,7.925 372.075,4 367.234,4L12.766,4Z" style="fill:none;"/>
    <clipPath id="_clip1">
        <path d="M12.766,4C7.925,4 4,7.925 4,12.766L4,221.234C4,226.075 7.925,230 12.766,230L367.234,230C372.075,230 376,226.075 376,221.234L376,12.766C376,7.925 372.075,4 367.234,4L12.766,4Z"/>
    </clipPath>
    <g clip-path="url(#_clip1)">
        <g>
            <path d="M39,14.5L39,220.5L355,220.5L355,14.5L39,14.5Z" style="fill:url(#_Linear2);"/>
            <g>
                <g>
                    <path d="M99.904,82.825L200.904,82.825" style="fill:none;stroke:#d4d1d7;stroke-width:4px;"/>
                    <path d="M99.904,92.41L144.904,92.41" style="fill:none;stroke:#d4d1d7;stroke-width:4px;"/>
                    <path d="M153.904,92.71L175.904,92.71" style="fill:none;stroke:#d4d1d7;stroke-width:4px;"/>
                    <path d="M99.904,102.265L115.904,102.265" style="fill:none;stroke:#d4d1d7;stroke-width:4px;"/>
                    <path d="M125.904,102.594L187.904,102.594" style="fill:none;stroke:#d4d1d7;stroke-width:4px;"/>
                    <path d="M99.904,112.479L160.904,112.479" style="fill:none;stroke:#d4d1d7;stroke-width:4px;"/>
                </g>
                <g>
                    <path d="M175.963,23.087L217.963,23.087" style="fill:none;stroke:#d4d1d7;stroke-width:4px;"/>
                    <path d="M225.963,23.087L246.963,23.087" style="fill:none;stroke:#d4d1d7;stroke-width:4px;"/>
                    <path d="M175.963,32.087L254.963,32.087" style="fill:none;stroke:#db53e0;stroke-width:4px;"/>
                    <path d="M175.963,41.087L188.963,41.087" style="fill:none;stroke:#d4d1d7;stroke-width:4px;"/>
                    <path d="M196.963,41.087L216.963,41.087" style="fill:none;stroke:#d4d1d7;stroke-width:4px;"/>
                    <path d="M225.963,41.087L240.963,41.087" style="fill:none;stroke:#d4d1d7;stroke-width:4px;"/>
                    <path d="M175.963,50.087L227.963,50.087" style="fill:none;stroke:#d4d1d7;stroke-width:4px;"/>
                </g>
                <g>
                    <path d="M99.904,162.818L156.904,162.818" style="fill:none;stroke:#d4d1d7;stroke-width:4px;"/>
                    <path d="M99.904,153.818L124.904,153.818" style="fill:none;stroke:#d4d1d7;stroke-width:4px;"/>
                    <path d="M133.904,153.818L161.904,153.818" style="fill:none;stroke:#d4d1d7;stroke-width:4px;"/>
                    <path d="M99.904,144.818L131.904,144.818" style="fill:none;stroke:#d4d1d7;stroke-width:4px;"/>
                    <path d="M142.404,144.818L153.404,144.818" style="fill:none;stroke:#1297ef;stroke-width:4px;"/>
                </g>
                <g>
                    <path d="M176.463,142.922L220.463,142.922" style="fill:none;stroke:#d4d1d7;stroke-width:4px;"/>
                    <path d="M230.463,142.922L253.463,142.922" style="fill:none;stroke:#58e053;stroke-width:4px;"/>
                    <path d="M175.963,151.922L197.963,151.922" style="fill:none;stroke:#d4d1d7;stroke-width:4px;"/>
                    <path d="M175.963,160.922L219.963,160.922" style="fill:none;stroke:#d4d1d7;stroke-width:4px;"/>
                    <path d="M175.963,169.922L191.963,169.922" style="fill:none;stroke:#d4d1d7;stroke-width:4px;"/>
                    <path d="M203.463,169.922L248.463,169.922" style="fill:none;stroke:#d4d1d7;stroke-width:4px;"/>
                    <path d="M209.963,151.922L234.963,151.922" style="fill:none;stroke:#d4d1d7;stroke-width:4px;"/>
                    <path d="M230.963,160.922L241.963,160.922" style="fill:none;stroke:#d4d1d7;stroke-width:4px;"/>
                </g>
            </g>
            <path d="M39,14.5L39,220.5L355,220.5L355,14.5L39,14.5Z" style="fill:none;stroke:url(#_Linear3);stroke-width:4px;"/>
        </g>
        <g>
            <path d="M36.553,66.514L38.895,75.091L169.479,39.437L167.137,30.859L36.553,66.514Z" style="fill:url(#_Linear4);"/>
            <path d="M169.479,39.437L178.64,31.942L167.137,30.859L169.479,39.437Z" style="fill:url(#_Linear5);"/>
            <path d="M83.411,93.175C91.548,76.879 82.959,66.06 58.793,60.343L40.515,77.399L56.869,99.615L83.411,93.175Z" style="fill:#732874;"/>
            <path d="M129.601,29.771L141.162,31.353C147.716,33.858 151.64,35.253 155.997,27.904C151.152,26.181 146.642,24.069 144.209,21.79C143.512,21.004 142.468,20.62 141.427,20.765C132.616,21.924 127.145,24.398 118.335,24.075C117.522,24.05 116.729,24.327 116.109,24.852C108.215,31.53 107.508,31.617 98.569,36.24C97.884,36.595 97.299,37.117 96.871,37.759C93.385,42.792 86.681,50.026 82.382,53.376L41.255,84.641L43.145,89.656L82.227,64.422L113.156,37.156L129.601,29.771Z" style="fill:url(#_Radial6);"/>
            <path d="M45.375,112.802C58.734,101.266 72.926,89.992 93.745,80.797C101.477,79.955 109.505,78.694 119.128,75.165C125.267,69.295 132.319,63.059 139.805,58.127C140.273,57.82 140.6,57.34 140.713,56.793C141.451,53.575 143.254,49.115 146.122,43.411C139.312,39.397 133.983,42.36 130.232,52.767C126.928,54.209 123.272,57.621 120.777,60.223C116.87,59.915 113.076,57.834 111.634,54.529C113.672,48.798 113.556,46.901 118.557,38.496C124.343,38.368 129.98,35.43 133.568,34.062C142.012,39.687 148.793,39.824 152.975,33.46C148.44,30.993 142.71,27.636 139.438,24.593C138.349,23.367 136.654,22.874 135.077,23.324C128.103,25.251 123.496,27.31 116.459,27.724C115.75,27.768 115.077,28.046 114.543,28.515C107.462,34.666 104.647,38.141 97.122,42.331C96.7,42.57 96.336,42.897 96.054,43.292C93.525,46.791 90.394,49.777 86.08,51.758C85.842,51.866 85.612,51.991 85.392,52.131C81.084,54.849 31.868,86.015 31.868,86.015L45.375,112.802Z" style="fill:url(#_Radial7);"/>
            <path d="M83.411,93.175C65.452,88.307 56.675,77.718 58.793,60.343L-83.045,133.474L-48.48,187.633L83.411,93.175Z" style="fill:url(#_Linear8);"/>
            <path d="M35.115,66.849L37.457,75.427L124.125,51.762L121.783,43.185L35.115,66.849Z" style="fill:url(#_Linear9);"/>
        </g>
        <g>
            <path d="M291.794,165.921L282.113,162.674C276,162.094 272.381,161.664 271.817,154.209C276.191,154.727 280.459,154.829 283.257,154.043C284.224,153.666 285.314,153.793 286.169,154.38C292.49,158.636 295.821,162.635 302.708,165.768C303.44,166.107 304.021,166.703 304.342,167.443C307.87,175.565 308.427,175.983 313.536,182.931C313.991,183.55 314.283,184.274 314.383,185.035C315.184,190.341 317.608,198.509 319.661,202.768L334.857,244.593L331.427,247.792L315.493,211.49L301.824,178.098L291.794,165.921Z" style="fill:url(#_Linear10);"/>
            <path d="M324.668,211.584L319.033,216.95L258.286,153.165L263.92,147.799L324.668,211.584Z" style="fill:url(#_Linear11);"/>
            <path d="M254.357,142.926C253.913,142.879 253.514,143.202 253.467,143.646C253.42,144.09 253.743,144.488 254.186,144.535C254.63,144.582 255.029,144.26 255.076,143.816C255.123,143.372 254.801,142.973 254.357,142.926Z" style="fill:#889290;"/>
            <path d="M258.286,153.165C258.286,153.165 255.874,148.768 253.958,145.274C253.659,144.728 253.755,144.05 254.196,143.61C254.636,143.17 255.314,143.074 255.86,143.373C259.412,145.324 263.92,147.799 263.92,147.799L258.286,153.165Z" style="fill:url(#_Linear12);"/>
            <path d="M324.234,288.104C319.445,273.42 309.537,234.107 298.1,217.801C292.688,213.673 285.455,209.704 279.843,202.707C277.908,195.565 275.46,187.741 272.105,180.685C271.866,180.185 271.833,179.612 272.013,179.089C272.856,176.512 273.293,173.255 273.718,167.764C279.859,167.825 282.41,171.358 281.248,180.861C283.071,183.437 285.158,187.583 285.851,190.661C288.917,192.197 292.216,192.461 294.791,190.638C295.857,185.422 295.539,184.077 295.596,175.519C291.319,172.805 286.432,167.119 284.362,164.471C275.492,164.865 270.809,163.525 270.555,156.865C274.983,157.065 280.66,157.143 284.488,156.391C285.947,155.954 287.528,156.328 288.636,157.373C293.192,161.655 296.918,164.118 302.029,167.444C302.621,167.83 303.069,168.399 303.305,169.064C305.854,176.614 307.371,178.64 311.096,184.954C311.359,185.395 311.516,185.891 311.556,186.403C311.924,190.494 313.304,196.289 315.401,200.427C315.402,200.428 315.403,200.429 315.403,200.431C315.424,200.471 356.628,281.329 356.628,281.329L324.234,288.104Z" style="fill:url(#_Radial13);"/>
            <path d="M326.909,221.371C326.355,221.897 325.479,221.875 324.953,221.321C323.291,219.573 320.038,216.151 320.038,216.151L323.878,212.5C323.878,212.5 327.131,215.922 328.793,217.67C329.319,218.224 329.297,219.1 328.744,219.626C328.178,220.164 327.474,220.833 326.909,221.371Z" style="fill:url(#_Linear14);"/>
            <path d="M325.365,212.246L319.731,217.612L286.387,182.601L292.021,177.235L325.365,212.246Z" style="fill:url(#_Linear15);"/>
        </g>
        <g>
            <path d="M217.473,65.04L219.892,85.087C219.892,85.087 210.408,84.072 199.5,85.064C197.522,88.907 192.496,92.209 189.877,93.725C190.883,104.249 189.994,108.396 182.327,109.25C182.281,103.795 182.404,97.302 181.347,93.005C180.809,91.481 181.18,89.784 182.304,88.623C186.881,83.442 188.657,81.963 192.273,75.171C192.615,74.569 193.143,74.094 193.778,73.817C204.318,69.247 217.473,65.04 217.473,65.04Z" style="fill:url(#_Linear16);"/>
            <path d="M258.999,35.062L263.211,39.525L167.671,129.715L163.458,125.252L258.999,35.062Z" style="fill:url(#_Linear17);"/>
            <path d="M152.512,144.818C157.104,136.692 163.607,139.22 168.026,134.529C170.377,132.034 170.26,128.099 167.764,125.748C165.269,123.397 161.334,123.514 158.983,126.01C154.564,130.7 153.618,137.674 152.512,144.818Z" style="fill:url(#_Linear18);"/>
            <path d="M311.511,55.252C292.693,61.298 273.638,68.292 252.707,82.836C247.394,89.738 241.508,96.677 232.522,103.82C223.3,106.275 213.189,109.393 204.085,113.697C203.578,113.938 202.995,113.967 202.466,113.776C198.961,112.59 193.613,111.702 186.423,111.113C186.555,102.261 192.496,98.894 204.633,101.377C207.938,99.058 212.829,96.019 216.773,95.151C218.756,91.236 219.823,88.633 217.505,85.327C210.837,83.934 208.863,83.566 197.911,83.446C194.415,88.903 190.021,91.536 186.621,94.169C187.075,105.522 183.252,112.085 174.729,112.373C175.021,106.464 176.182,99.015 175.443,94.186C175.019,92.693 175.445,91.087 176.552,89.999C182.309,84.256 185.138,81.347 189.582,74.698C189.981,74.108 190.565,73.667 191.242,73.445C201.325,70.152 205.587,68.46 214.019,63.605C214.453,63.357 214.937,63.209 215.436,63.174C220.295,62.807 225.014,61.55 229.457,58.545C229.675,58.397 229.904,58.264 230.14,58.147C235.052,55.714 293.776,26.719 293.776,26.719L311.511,55.252Z" style="fill:url(#_Radial19);"/>
            <path d="M267.336,87.54C248.344,78.362 235.001,60.751 243.719,41.047C286.609,25.524 343.84,-29.155 386.248,-59.503L416.572,8.083C359.089,26.996 297.932,64.277 267.336,87.54Z" style="fill:url(#_Linear20);"/>
            <path d="M258.999,35.062L263.211,39.525L205.943,93.586L201.731,89.123L258.999,35.062Z" style="fill:url(#_Linear21);"/>
        </g>
        <g>
            <g>
                <path d="M331.366,103.206L326.351,94.149L324.906,104.401L331.366,103.206Z" style="fill:url(#_Linear22);"/>
                <path d="M331.366,103.206L324.906,104.401L337.979,175.094L344.439,173.9L331.366,103.206Z" style="fill:url(#_Linear23);"/>
            </g>
            <g>
                <path d="M345.187,89.101L340.796,79.725L338.661,89.856L345.187,89.101Z" style="fill:url(#_Linear24);"/>
                <path d="M345.187,89.101L338.661,89.856L346.921,161.271L353.447,160.517L345.187,89.101Z" style="fill:url(#_Linear25);"/>
            </g>
            <g>
                <path d="M369.268,68.929L362.715,68.472L357.707,140.189L364.261,140.647L369.268,68.929Z" style="fill:url(#_Linear26);"/>
                <path d="M369.268,68.929L366.675,58.906L362.715,68.472L369.268,68.929Z" style="fill:url(#_Linear27);"/>
            </g>
        </g>
        <g>
            <g>
                <path d="M14.481,223.703C14.672,224.443 15.427,224.887 16.167,224.695C18.502,224.09 23.072,222.904 23.072,222.904L21.742,217.775C21.742,217.775 17.172,218.961 14.837,219.566C14.097,219.758 13.653,220.513 13.845,221.253C14.041,222.008 14.285,222.948 14.481,223.703Z" style="fill:url(#_Linear28);"/>
                <path d="M20.021,216.976L21.968,224.51L108.785,202.074L106.838,194.54L20.021,216.976Z" style="fill:url(#_Linear29);"/>
                <path d="M117.532,195.458C117.933,195.653 118.101,196.137 117.907,196.539C117.712,196.941 117.228,197.109 116.826,196.914C116.424,196.719 116.256,196.235 116.451,195.833C116.646,195.432 117.13,195.264 117.532,195.458Z" style="fill:#889290;"/>
                <path d="M108.785,202.074C108.785,202.074 113.156,199.616 116.629,197.662C117.172,197.357 117.448,196.73 117.307,196.124C117.166,195.518 116.641,195.077 116.019,195.043C111.973,194.822 106.838,194.54 106.838,194.54L108.785,202.074Z" style="fill:url(#_Linear30);"/>
            </g>
            <g>
                <path d="M10.585,216.705C10.891,217.405 11.707,217.724 12.407,217.417C14.616,216.448 18.941,214.552 18.941,214.552L16.813,209.7C16.813,209.7 12.489,211.595 10.279,212.564C9.58,212.871 9.261,213.687 9.568,214.387C9.881,215.101 10.271,215.991 10.585,216.705Z" style="fill:url(#_Linear31);"/>
                <path d="M14.987,209.184L18.105,216.313L100.258,180.376L97.139,173.247L14.987,209.184Z" style="fill:url(#_Linear32);"/>
                <path d="M107.843,172.455C108.271,172.584 108.513,173.035 108.385,173.463C108.256,173.89 107.805,174.133 107.378,174.005C106.95,173.876 106.707,173.425 106.836,172.997C106.964,172.57 107.416,172.327 107.843,172.455Z" style="fill:#889290;"/>
                <path d="M100.258,180.376C100.258,180.376 104.183,177.255 107.302,174.775C107.79,174.387 107.963,173.724 107.727,173.148C107.491,172.572 106.903,172.22 106.284,172.286C102.254,172.709 97.139,173.247 97.139,173.247L100.258,180.376Z" style="fill:url(#_Linear33);"/>
            </g>
        </g>
    </g>
    <defs>
        <linearGradient id="_Linear2" x1="0" y1="0" x2="1" y2="0" gradientUnits="userSpaceOnUse" gradientTransform="matrix(316,-206,206,316,39,220.5)"><stop offset="0" style="stop-color:#fafbfb;stop-opacity:1"/><stop offset="1" style="stop-color:#eef1f2;stop-opacity:1"/></linearGradient>
        <linearGradient id="_Linear3" x1="0" y1="0" x2="1" y2="0" gradientUnits="userSpaceOnUse" gradientTransform="matrix(316,-206,206,316,39,220.5)"><stop offset="0" style="stop-color:#e4e3e6;stop-opacity:1"/><stop offset="1" style="stop-color:#dadcde;stop-opacity:1"/></linearGradient>
        <linearGradient id="_Linear4" x1="0" y1="0" x2="1" y2="0" gradientUnits="userSpaceOnUse" gradientTransform="matrix(-2.34201,-8.57752,130.584,-35.6547,104.187,57.2642)"><stop offset="0" style="stop-color:#d164a4;stop-opacity:1"/><stop offset="1" style="stop-color:#fbbddd;stop-opacity:1"/></linearGradient>
        <linearGradient id="_Linear5" x1="0" y1="0" x2="1" y2="0" gradientUnits="userSpaceOnUse" gradientTransform="matrix(10.4717,-2.69694,2.69694,10.4717,168.169,34.6389)"><stop offset="0" style="stop-color:#f0ca76;stop-opacity:1"/><stop offset="0.65" style="stop-color:#aa8d4c;stop-opacity:1"/><stop offset="0.68" style="stop-color:#6f6550;stop-opacity:1"/><stop offset="1" style="stop-color:#444;stop-opacity:1"/></linearGradient>
        <radialGradient id="_Radial6" cx="0" cy="0" r="1" gradientUnits="userSpaceOnUse" gradientTransform="matrix(-37.0614,-15.8332,15.8332,-37.0614,146.234,33.0569)"><stop offset="0" style="stop-color:#f5b996;stop-opacity:1"/><stop offset="1" style="stop-color:#eb9360;stop-opacity:1"/></radialGradient>
        <radialGradient id="_Radial7" cx="0" cy="0" r="1" gradientUnits="userSpaceOnUse" gradientTransform="matrix(-53.1903,30.3974,-10.6775,-18.6838,123.633,46.5883)"><stop offset="0" style="stop-color:#f5b996;stop-opacity:1"/><stop offset="1" style="stop-color:#eb9360;stop-opacity:1"/></radialGradient>
        <linearGradient id="_Linear8" x1="0" y1="0" x2="1" y2="0" gradientUnits="userSpaceOnUse" gradientTransform="matrix(60.1821,6.34214,-6.34214,60.1821,-1.02439,95.1311)"><stop offset="0" style="stop-color:#c48ac4;stop-opacity:1"/><stop offset="1" style="stop-color:#af26b0;stop-opacity:1"/></linearGradient>
        <linearGradient id="_Linear9" x1="0" y1="0" x2="1" y2="0" gradientUnits="userSpaceOnUse" gradientTransform="matrix(-2.34201,-8.57752,86.6686,-23.664,80.7911,63.5945)"><stop offset="0" style="stop-color:#d164a4;stop-opacity:1"/><stop offset="1" style="stop-color:#fbbddd;stop-opacity:1"/></linearGradient>
        <linearGradient id="_Linear10" x1="0" y1="0" x2="1" y2="0" gradientUnits="userSpaceOnUse" gradientTransform="matrix(9.79234,-7.91675,-7.91675,-9.79234,294.613,176.709)"><stop offset="0" style="stop-color:#fcc187;stop-opacity:1"/><stop offset="1" style="stop-color:#f3b475;stop-opacity:1"/></linearGradient>
        <linearGradient id="_Linear11" x1="0" y1="0" x2="1" y2="0" gradientUnits="userSpaceOnUse" gradientTransform="matrix(5.63456,-5.36625,-60.7477,-63.7851,288.659,185.058)"><stop offset="0" style="stop-color:#56ab4c;stop-opacity:1"/><stop offset="1" style="stop-color:#a6daa8;stop-opacity:1"/></linearGradient>
        <linearGradient id="_Linear12" x1="0" y1="0" x2="1" y2="0" gradientUnits="userSpaceOnUse" gradientTransform="matrix(-4.8972,4.09097,4.09097,4.8972,261.864,146.67)"><stop offset="0" style="stop-color:#d6dfdd;stop-opacity:1"/><stop offset="1" style="stop-color:#839293;stop-opacity:1"/></linearGradient>
        <radialGradient id="_Radial13" cx="0" cy="0" r="1" gradientUnits="userSpaceOnUse" gradientTransform="matrix(26.096,46.8326,16.4506,-9.16655,289.395,179.261)"><stop offset="0" style="stop-color:#fdd1a5;stop-opacity:1"/><stop offset="1" style="stop-color:#f4ba80;stop-opacity:1"/></radialGradient>
        <linearGradient id="_Linear14" x1="0" y1="0" x2="1" y2="0" gradientUnits="userSpaceOnUse" gradientTransform="matrix(5.86872,6.17261,3.84003,-3.65098,321.958,214.326)"><stop offset="0" style="stop-color:#8d8d9b;stop-opacity:1"/><stop offset="1" style="stop-color:#bbbfc5;stop-opacity:1"/></linearGradient>
        <linearGradient id="_Linear15" x1="0" y1="0" x2="1" y2="0" gradientUnits="userSpaceOnUse" gradientTransform="matrix(5.63456,-5.36625,-33.344,-35.0112,303.059,200.106)"><stop offset="0" style="stop-color:#56ab4c;stop-opacity:1"/><stop offset="1" style="stop-color:#a6daa8;stop-opacity:1"/></linearGradient>
        <linearGradient id="_Linear16" x1="0" y1="0" x2="1" y2="0" gradientUnits="userSpaceOnUse" gradientTransform="matrix(10.0473,6.18744,-6.18744,10.0473,192.752,74.4314)"><stop offset="0" style="stop-color:#ca7b5e;stop-opacity:1"/><stop offset="1" style="stop-color:#893c1f;stop-opacity:1"/></linearGradient>
        <linearGradient id="_Linear17" x1="0" y1="0" x2="1" y2="0" gradientUnits="userSpaceOnUse" gradientTransform="matrix(-4.21286,-4.46278,-95.5403,90.19,215.441,84.6197)"><stop offset="0" style="stop-color:#647ed1;stop-opacity:1"/><stop offset="1" style="stop-color:#bdc5fb;stop-opacity:1"/></linearGradient>
        <linearGradient id="_Linear18" x1="0" y1="0" x2="1" y2="0" gradientUnits="userSpaceOnUse" gradientTransform="matrix(-11.1134,13.2288,-13.2288,-11.1134,166.955,125.103)"><stop offset="0" style="stop-color:#afb1c0;stop-opacity:1"/><stop offset="1" style="stop-color:#393b3f;stop-opacity:1"/></linearGradient>
        <radialGradient id="_Radial19" cx="0" cy="0" r="1" gradientUnits="userSpaceOnUse" gradientTransform="matrix(60.0775,-33.1297,-11.6372,-21.103,202.574,91.4638)"><stop offset="0" style="stop-color:#ca7b5e;stop-opacity:1"/><stop offset="1" style="stop-color:#893c1f;stop-opacity:1"/></radialGradient>
        <linearGradient id="_Linear20" x1="0" y1="0" x2="1" y2="0" gradientUnits="userSpaceOnUse" gradientTransform="matrix(118.756,-111.043,111.043,118.756,256.082,80.5528)"><stop offset="0" style="stop-color:#f6eda5;stop-opacity:1"/><stop offset="1" style="stop-color:#e28f29;stop-opacity:1"/></linearGradient>
        <linearGradient id="_Linear21" x1="0" y1="0" x2="1" y2="0" gradientUnits="userSpaceOnUse" gradientTransform="matrix(-4.21286,-4.46278,-57.268,54.061,234.577,66.5552)"><stop offset="0" style="stop-color:#647ed1;stop-opacity:1"/><stop offset="1" style="stop-color:#bdc5fb;stop-opacity:1"/></linearGradient>
        <linearGradient id="_Linear22" x1="0" y1="0" x2="1" y2="0" gradientUnits="userSpaceOnUse" gradientTransform="matrix(-1.7854,-9.65493,9.65493,-1.7854,328.136,103.804)"><stop offset="0" style="stop-color:#f0ca76;stop-opacity:1"/><stop offset="0.65" style="stop-color:#aa8d4c;stop-opacity:1"/><stop offset="0.68" style="stop-color:#6f6550;stop-opacity:1"/><stop offset="1" style="stop-color:#444;stop-opacity:1"/></linearGradient>
        <linearGradient id="_Linear23" x1="0" y1="0" x2="1" y2="0" gradientUnits="userSpaceOnUse" gradientTransform="matrix(6.46021,-1.19463,13.0727,70.6932,331.443,139.748)"><stop offset="0" style="stop-color:#ccbed4;stop-opacity:1"/><stop offset="1" style="stop-color:#b85eca;stop-opacity:1"/></linearGradient>
        <linearGradient id="_Linear24" x1="0" y1="0" x2="1" y2="0" gradientUnits="userSpaceOnUse" gradientTransform="matrix(-1.12813,-9.7536,9.7536,-1.12813,341.924,89.4784)"><stop offset="0" style="stop-color:#f0ca76;stop-opacity:1"/><stop offset="0.65" style="stop-color:#aa8d4c;stop-opacity:1"/><stop offset="0.68" style="stop-color:#6f6550;stop-opacity:1"/><stop offset="1" style="stop-color:#444;stop-opacity:1"/></linearGradient>
        <linearGradient id="_Linear25" x1="0" y1="0" x2="1" y2="0" gradientUnits="userSpaceOnUse" gradientTransform="matrix(6.52623,-0.754844,8.26015,71.4156,342.791,125.564)"><stop offset="0" style="stop-color:#eeb5c7;stop-opacity:1"/><stop offset="1" style="stop-color:#e26cab;stop-opacity:1"/></linearGradient>
        <linearGradient id="_Linear26" x1="0" y1="0" x2="1" y2="0" gradientUnits="userSpaceOnUse" gradientTransform="matrix(6.55379,0.457605,-5.00751,71.7171,360.211,104.33)"><stop offset="0" style="stop-color:#9fbde1;stop-opacity:1"/><stop offset="1" style="stop-color:#5d62cb;stop-opacity:1"/></linearGradient>
        <linearGradient id="_Linear27" x1="0" y1="0" x2="1" y2="0" gradientUnits="userSpaceOnUse" gradientTransform="matrix(0.683901,-9.79477,9.79477,0.683901,365.992,68.7006)"><stop offset="0" style="stop-color:#f0ca76;stop-opacity:1"/><stop offset="0.65" style="stop-color:#aa8d4c;stop-opacity:1"/><stop offset="0.68" style="stop-color:#6f6550;stop-opacity:1"/><stop offset="1" style="stop-color:#444;stop-opacity:1"/></linearGradient>
        <linearGradient id="_Linear28" x1="0" y1="0" x2="1" y2="0" gradientUnits="userSpaceOnUse" gradientTransform="matrix(-8.24449,2.1381,-1.33013,-5.12896,22.4074,220.34)"><stop offset="0" style="stop-color:#8d8d9b;stop-opacity:1"/><stop offset="1" style="stop-color:#bbbfc5;stop-opacity:1"/></linearGradient>
        <linearGradient id="_Linear29" x1="0" y1="0" x2="1" y2="0" gradientUnits="userSpaceOnUse" gradientTransform="matrix(-1.94692,-7.53356,86.8168,-22.4363,65.3764,213.292)"><stop offset="0" style="stop-color:#4c8dab;stop-opacity:1"/><stop offset="1" style="stop-color:#a6d3da;stop-opacity:1"/></linearGradient>
        <linearGradient id="_Linear30" x1="0" y1="0" x2="1" y2="0" gradientUnits="userSpaceOnUse" gradientTransform="matrix(1.99501,6.06123,-6.06123,1.99501,109.18,194.668)"><stop offset="0" style="stop-color:#d6dfdd;stop-opacity:1"/><stop offset="1" style="stop-color:#839293;stop-opacity:1"/></linearGradient>
        <linearGradient id="_Linear31" x1="0" y1="0" x2="1" y2="0" gradientUnits="userSpaceOnUse" gradientTransform="matrix(-7.80037,3.42012,-2.12768,-4.85267,17.8767,212.126)"><stop offset="0" style="stop-color:#8d8d9b;stop-opacity:1"/><stop offset="1" style="stop-color:#bbbfc5;stop-opacity:1"/></linearGradient>
        <linearGradient id="_Linear32" x1="0" y1="0" x2="1" y2="0" gradientUnits="userSpaceOnUse" gradientTransform="matrix(-3.11848,-7.12882,82.1526,-35.9374,59.1814,198.344)"><stop offset="0" style="stop-color:#c65d72;stop-opacity:1"/><stop offset="1" style="stop-color:#daa6a8;stop-opacity:1"/></linearGradient>
        <linearGradient id="_Linear33" x1="0" y1="0" x2="1" y2="0" gradientUnits="userSpaceOnUse" gradientTransform="matrix(2.93216,5.66754,-5.66754,2.93216,99.4718,173.002)"><stop offset="0" style="stop-color:#d6dfdd;stop-opacity:1"/><stop offset="1" style="stop-color:#839293;stop-opacity:1"/></linearGradient>
    </defs>
</svg>
